<svg width="42" height="42" viewBox="0 0 42 42" fill="none" xmlns="http://www.w3.org/2000/svg">
<path fill-rule="evenodd" clip-rule="evenodd" d="M22.5743 24.62C23.8664 24.62 24.9181 25.6154 24.9181 26.8389V29.9857C24.9181 30.2486 25.1392 30.4594 25.4225 30.4655H27.468C29.0799 30.4655 30.3902 29.2317 30.3902 27.7157V18.7909C30.3827 18.2692 30.122 17.7782 29.6744 17.4518L22.599 12.0729C21.6493 11.3557 20.3207 11.3557 19.3677 12.0749L12.3406 17.4498C11.8759 17.7864 11.6151 18.2774 11.6098 18.8083V27.7157C11.6098 29.2317 12.9201 30.4655 14.532 30.4655H16.5968C16.8876 30.4655 17.1237 30.2455 17.1237 29.9755C17.1237 29.9161 17.1312 29.8568 17.1441 29.8005V26.8389C17.1441 25.6226 18.1894 24.6282 19.4718 24.62H22.5743ZM27.468 32H25.4032C24.2206 31.9734 23.3084 31.0885 23.3084 29.9857V26.8389C23.3084 26.4614 22.9789 26.1545 22.5743 26.1545H19.4772C19.0812 26.1566 18.7539 26.4645 18.7539 26.8389V29.9755C18.7539 30.0522 18.7431 30.1259 18.7206 30.1954C18.6047 31.2082 17.6968 32 16.5968 32H14.532C12.0326 32 10 30.0778 10 27.7157V18.8012C10.0107 17.7843 10.5022 16.8534 11.3511 16.2406L18.3643 10.8749C19.9086 9.7087 22.0603 9.7087 23.6014 10.8729L30.665 16.2437C31.4945 16.8462 31.986 17.7751 32 18.7797V27.7157C32 30.0778 29.9674 32 27.468 32Z" fill="#828282"/>
</svg>
