<svg width="30" height="25" viewBox="0 0 30 25" fill="none" xmlns="http://www.w3.org/2000/svg">
<path fill-rule="evenodd" clip-rule="evenodd" d="M3.00002 1.42497e-05L2.94561 7.09714e-06C2.52154 -7.62302e-05 2.10941 -0.000157173 1.7695 0.0455431C1.38629 0.0970634 0.949017 0.222585 0.585802 0.585801C0.222586 0.949016 0.0970642 1.38629 0.045544 1.76949C-0.000155452 2.1094 -7.54003e-05 2.52152 6.97643e-06 2.94558V2.94561L1.50827e-05 3.00001V8.00001L6.97643e-06 8.05442V8.05445C-7.54003e-05 8.47851 -0.000155454 8.89063 0.045544 9.23053C0.0970642 9.61374 0.222586 10.051 0.585802 10.4142C0.949017 10.7774 1.38629 10.903 1.7695 10.9545C2.10939 11.0002 2.5215 11.0001 2.94554 11H2.94556H2.94557H2.94558H2.94559H2.9456L3.00002 11H10L10.0544 11H10.0544H10.0545H10.0545H10.0545H10.0545C10.4785 11.0001 10.8906 11.0002 11.2305 10.9545C11.6137 10.903 12.051 10.7774 12.4142 10.4142C12.7774 10.051 12.903 9.61374 12.9545 9.23053C13.0002 8.89062 13.0001 8.47849 13 8.05443L13 8.00001V3.00001L13 2.9456C13.0001 2.52153 13.0002 2.10941 12.9545 1.76949C12.903 1.38629 12.7774 0.949016 12.4142 0.585801C12.051 0.222585 11.6137 0.0970634 11.2305 0.0455431C10.8906 -0.000157173 10.4785 -7.62302e-05 10.0544 7.09714e-06L10 1.42497e-05H3.00002ZM2.02771 2.03599L2.02871 2.02871L2.03599 2.02771C2.22618 2.00214 2.50034 2.00001 3.00002 2.00001H10C10.4997 2.00001 10.7738 2.00214 10.964 2.02771L10.9713 2.02871L10.9723 2.03599C10.9979 2.22618 11 2.50034 11 3.00001V8.00001C11 8.49969 10.9979 8.77385 10.9723 8.96404L10.9713 8.97132L10.964 8.97232C10.7738 8.99789 10.4997 9.00001 10 9.00001H3.00002C2.50034 9.00001 2.22618 8.99789 2.03599 8.97232L2.02871 8.97132L2.02771 8.96404C2.00214 8.77385 2.00002 8.49969 2.00002 8.00001V3.00001C2.00002 2.50034 2.00214 2.22618 2.02771 2.03599ZM20 1.42497e-05L19.9456 7.09714e-06C19.5215 -7.62302e-05 19.1094 -0.000157173 18.7695 0.0455431C18.3863 0.0970634 17.949 0.222585 17.5858 0.585801C17.2226 0.949016 17.0971 1.38629 17.0455 1.76949C16.9998 2.10939 16.9999 2.5215 17 2.94554V2.94561L17 3.00001V8.00001L17 8.05442V8.05448C16.9999 8.47853 16.9998 8.89064 17.0455 9.23053C17.0971 9.61374 17.2226 10.051 17.5858 10.4142C17.9036 10.732 18.2781 10.8679 18.6235 10.9314C18.6728 10.9405 18.7216 10.948 18.7695 10.9545C19.1094 11.0002 19.5215 11.0001 19.9456 11L20 11H27L27.0544 11C27.4785 11.0001 27.8906 11.0002 28.2305 10.9545C28.6137 10.903 29.051 10.7774 29.4142 10.4142C29.7774 10.051 29.903 9.61374 29.9545 9.23053C30.0002 8.89062 30.0001 8.47849 30 8.05443L30 8.00001V3.00001L30 2.9456C30.0001 2.52153 30.0002 2.10941 29.9545 1.76949C29.903 1.38629 29.7774 0.949016 29.4142 0.585801C29.051 0.222585 28.6137 0.0970634 28.2305 0.0455431C27.8906 -0.000157173 27.4785 -7.62302e-05 27.0544 7.09714e-06L27 1.42497e-05H20ZM19.0277 2.03599L19.0287 2.02871L19.036 2.02771C19.2262 2.00214 19.5003 2.00001 20 2.00001H27C27.4997 2.00001 27.7738 2.00214 27.964 2.02771L27.9713 2.02871L27.9723 2.03599C27.9979 2.22618 28 2.50034 28 3.00001V8.00001C28 8.49969 27.9979 8.77385 27.9723 8.96404L27.9713 8.97132L27.964 8.97232C27.7738 8.99789 27.4997 9.00001 27 9.00001H20C19.5003 9.00001 19.2262 8.99789 19.036 8.97232L19.0287 8.97132L19.0277 8.96404C19.0021 8.77385 19 8.49969 19 8.00001V3.00001C19 2.50034 19.0021 2.22618 19.0277 2.03599ZM3.00002 14L2.94561 14C2.52154 13.9999 2.10941 13.9998 1.7695 14.0455C1.38629 14.0971 0.949017 14.2226 0.585802 14.5858C0.222586 14.949 0.0970642 15.3863 0.045544 15.7695C-0.000155452 16.1094 -7.54003e-05 16.5215 6.97643e-06 16.9456V16.9456L1.50827e-05 17V22L6.97643e-06 22.0544V22.0544C-7.54003e-05 22.4785 -0.000155454 22.8906 0.045544 23.2305C0.0970642 23.6137 0.222586 24.051 0.585802 24.4142C0.949017 24.7774 1.38629 24.903 1.7695 24.9545C2.10941 25.0002 2.52154 25.0001 2.9456 25L3.00002 25H10L10.0544 25C10.4785 25.0001 10.8906 25.0002 11.2305 24.9545C11.6137 24.903 12.051 24.7774 12.4142 24.4142C12.7774 24.051 12.903 23.6137 12.9545 23.2305C13.0002 22.8906 13.0001 22.4785 13 22.0544L13 22V17L13 16.9456C13.0001 16.5215 13.0002 16.1094 12.9545 15.7695C12.903 15.3863 12.7774 14.949 12.4142 14.5858C12.051 14.2226 11.6137 14.0971 11.2305 14.0455C10.8906 13.9998 10.4785 13.9999 10.0544 14L10 14H3.00002ZM2.02771 16.036L2.02871 16.0287L2.03599 16.0277C2.22618 16.0021 2.50034 16 3.00002 16H10C10.4997 16 10.7738 16.0021 10.964 16.0277L10.9713 16.0287L10.9723 16.036C10.9979 16.2262 11 16.5003 11 17V22C11 22.4997 10.9979 22.7738 10.9723 22.964L10.9713 22.9713L10.964 22.9723C10.7738 22.9979 10.4997 23 10 23H3.00002C2.50034 23 2.22618 22.9979 2.03599 22.9723L2.02871 22.9713L2.02771 22.964C2.00214 22.7738 2.00002 22.4997 2.00002 22V17C2.00002 16.5003 2.00214 16.2262 2.02771 16.036ZM20 14L19.9456 14C19.5215 13.9999 19.1094 13.9998 18.7695 14.0455C18.3863 14.0971 17.949 14.2226 17.5858 14.5858C17.2226 14.949 17.0971 15.3863 17.0455 15.7695C16.9998 16.1094 16.9999 16.5215 17 16.9455V16.9456L17 17V22L17 22.0544V22.0545C16.9999 22.4785 16.9998 22.8906 17.0455 23.2305C17.0971 23.6137 17.2226 24.051 17.5858 24.4142C17.949 24.7774 18.3863 24.903 18.7695 24.9545C19.1094 25.0002 19.5215 25.0001 19.9456 25L20 25H27L27.0544 25C27.4785 25.0001 27.8906 25.0002 28.2305 24.9545C28.6137 24.903 29.051 24.7774 29.4142 24.4142C29.7774 24.051 29.903 23.6137 29.9545 23.2305C30.0002 22.8906 30.0001 22.4785 30 22.0544L30 22V17L30 16.9456C30.0001 16.5215 30.0002 16.1094 29.9545 15.7695C29.903 15.3863 29.7774 14.949 29.4142 14.5858C29.051 14.2226 28.6137 14.0971 28.2305 14.0455C27.8906 13.9998 27.4785 13.9999 27.0544 14L27 14H20ZM19.0277 16.036L19.0287 16.0287L19.036 16.0277C19.2262 16.0021 19.5003 16 20 16H27C27.4997 16 27.7738 16.0021 27.964 16.0277L27.9713 16.0287L27.9723 16.036C27.9979 16.2262 28 16.5003 28 17V22C28 22.4997 27.9979 22.7738 27.9723 22.964L27.9713 22.9713L27.964 22.9723C27.7738 22.9979 27.4997 23 27 23H20C19.5003 23 19.2262 22.9979 19.036 22.9723L19.0287 22.9713L19.0277 22.964C19.0021 22.7738 19 22.4997 19 22V17C19 16.5003 19.0021 16.2262 19.0277 16.036Z" fill="#828282"/>
</svg>
