<svg width="16" height="22" viewBox="0 0 16 22" fill="none" xmlns="http://www.w3.org/2000/svg">
<path d="M7.84497 21.0119C6.1389 21.0772 4.43343 20.8692 2.79303 20.3959C0.69303 19.6709 0.25 18.3589 0.25 17.3869C0.307233 16.6221 0.553695 15.8836 0.967224 15.2377C1.38075 14.5919 1.94839 14.059 2.61902 13.6869C4.19032 12.726 5.99598 12.2165 7.83783 12.2144C9.67968 12.2122 11.4865 12.7176 13.06 13.6749C13.7327 14.0438 14.3026 14.5747 14.718 15.2196C15.1335 15.8645 15.3813 16.603 15.439 17.3679C15.439 18.3409 15 19.6539 12.906 20.3859C11.2639 20.8668 9.55472 21.0782 7.84497 21.0119ZM7.84497 13.7119C6.29176 13.6965 4.76607 14.1219 3.44501 14.9389C2.98547 15.179 2.5913 15.5273 2.29651 15.9538C2.00172 16.3803 1.81515 16.8722 1.75299 17.3869C1.75299 18.7969 3.80402 19.5119 7.84802 19.5119C11.892 19.5119 13.942 18.7899 13.942 17.3659C13.8787 16.8521 13.6906 16.3615 13.3943 15.9369C13.0981 15.5124 12.7025 15.1666 12.242 14.9299C10.92 14.1186 9.39599 13.6965 7.84497 13.7119Z" fill="#9397A0"/>
<path d="M7.83692 10.524H7.80597C6.44066 10.5199 5.13275 9.97413 4.1695 9.00653C3.20626 8.03893 2.66641 6.7286 2.66846 5.36328C2.67052 3.99796 3.21434 2.68928 4.18049 1.72458C5.14664 0.75988 6.4561 0.218018 7.82142 0.218018C9.18673 0.218018 10.4963 0.75988 11.4624 1.72458C12.4286 2.68928 12.9724 3.99796 12.9744 5.36328C12.9765 6.7286 12.4366 8.03893 11.4734 9.00653C10.5101 9.97413 9.20223 10.5199 7.83692 10.524ZM7.83692 1.75C7.3593 1.74816 6.886 1.84041 6.44404 2.02148C6.00207 2.20256 5.60014 2.46893 5.26111 2.80536C4.92209 3.14179 4.65262 3.54168 4.46815 3.98224C4.28367 4.4228 4.18776 4.8954 4.18592 5.37302C4.18408 5.85063 4.27639 6.32394 4.45746 6.7659C4.63854 7.20786 4.90485 7.60983 5.24128 7.94885C5.5777 8.28788 5.97766 8.55732 6.41822 8.74179C6.85878 8.92627 7.33135 9.02218 7.80897 9.02402H7.83692C8.80151 9.02402 9.72663 8.64081 10.4087 7.95874C11.0908 7.27667 11.4739 6.35159 11.4739 5.38699C11.4739 4.4224 11.0908 3.49732 10.4087 2.81525C9.72663 2.13318 8.80151 1.75 7.83692 1.75Z" fill="#9397A0"/>
</svg>
