<svg width="15" height="14" viewBox="0 0 15 14" fill="none" xmlns="http://www.w3.org/2000/svg">
<path d="M10.4679 9.04978C10.4679 9.04995 10.4681 9.05002 10.4682 9.04989C11.3312 7.89369 11.7177 6.4603 11.5504 5.0364C11.3831 3.61233 10.6742 2.30279 9.56558 1.36976C8.45696 0.43673 7.03036 -0.0509732 5.57117 0.00422151C4.11198 0.0594162 2.72783 0.653438 1.69564 1.66745C0.663443 2.68145 0.0593229 4.04066 0.00414204 5.47315C-0.0510388 6.90563 0.446789 8.30575 1.39803 9.39339C2.34927 10.481 3.68376 11.176 5.13454 11.3392C6.58513 11.5024 8.045 11.122 9.22216 10.274C9.22229 10.2739 9.22222 10.2737 9.22205 10.2737C9.22191 10.2737 9.22183 10.2739 9.22192 10.274C9.2486 10.3089 9.27706 10.342 9.30906 10.3743L12.741 13.7434C12.9082 13.9076 13.1349 13.9999 13.3714 14C13.6079 14.0001 13.8347 13.9079 14.002 13.7439C14.1692 13.5798 14.2633 13.3572 14.2633 13.125C14.2634 12.8929 14.1696 12.6702 14.0024 12.506L10.5704 9.13695C10.5386 9.10536 10.5045 9.07617 10.4682 9.04964C10.4681 9.04956 10.4679 9.04964 10.4679 9.04978ZM-nan -nanL10.6979 5.68647C10.6979 6.31852 10.5711 6.94438 10.3247 7.52832C10.0783 8.11226 9.71717 8.64284 9.2619 9.08977C8.80662 9.5367 8.26614 9.89122 7.6713 10.1331C7.07646 10.375 6.43891 10.4995 5.79506 10.4995C5.15121 10.4995 4.51367 10.375 3.91883 10.1331C3.32399 9.89122 2.7835 9.5367 2.32823 9.08977C1.87296 8.64284 1.51182 8.11226 1.26543 7.52832C1.01904 6.94438 0.892226 6.31852 0.892226 5.68647C0.892226 4.40998 1.40877 3.18578 2.32823 2.28316C3.24769 1.38055 4.49475 0.873469 5.79506 0.873469C7.09538 0.873469 8.34243 1.38055 9.2619 2.28316C10.1814 3.18578 10.6979 4.40998 10.6979 5.68647L-nan -nanZ" fill="#F98121"/>
</svg>
