<svg width="22" height="22" viewBox="0 0 22 22" fill="none" xmlns="http://www.w3.org/2000/svg">
<path d="M15.5834 19.25V17.4167C15.5834 16.4442 15.1971 15.5116 14.5095 14.8239C13.8218 14.1363 12.8892 13.75 11.9167 13.75H4.58342C3.61095 13.75 2.67832 14.1363 1.99069 14.8239C1.30306 15.5116 0.916748 16.4442 0.916748 17.4167V19.25M21.0834 19.25V17.4167C21.0828 16.6043 20.8124 15.815 20.3147 15.173C19.8169 14.5309 19.12 14.0723 18.3334 13.8692M14.6667 2.86917C15.4555 3.07111 16.1545 3.52981 16.6538 4.17295C17.153 4.81609 17.4239 5.60709 17.4239 6.42125C17.4239 7.23541 17.153 8.02641 16.6538 8.66955C16.1545 9.31269 15.4555 9.77139 14.6667 9.97333M11.9167 6.41667C11.9167 8.44171 10.2751 10.0833 8.25008 10.0833C6.22504 10.0833 4.58342 8.44171 4.58342 6.41667C4.58342 4.39162 6.22504 2.75 8.25008 2.75C10.2751 2.75 11.9167 4.39162 11.9167 6.41667Z" stroke="#F39E3A" stroke-width="4" stroke-linecap="round" stroke-linejoin="round"/>
</svg>
